<mxfile host="app.diagrams.net" modified="2022-06-24T23:08:09.555Z" agent="5.0 (Windows NT 10.0; Win64; x64) AppleWebKit/537.36 (KHTML, like Gecko) Chrome/102.0.5005.124 Safari/537.36 Edg/102.0.1245.44" etag="6XHkmIdvvNUTdbvP1GcW" version="20.0.2" type="github">
  <diagram id="C5RBs43oDa-KdzZeNtuy" name="Page-1">
    <mxGraphModel dx="1422" dy="794" grid="1" gridSize="10" guides="1" tooltips="1" connect="1" arrows="1" fold="1" page="1" pageScale="1" pageWidth="1169" pageHeight="827" math="0" shadow="0">
      <root>
        <mxCell id="WIyWlLk6GJQsqaUBKTNV-0" />
        <mxCell id="WIyWlLk6GJQsqaUBKTNV-1" parent="WIyWlLk6GJQsqaUBKTNV-0" />
        <mxCell id="ma_xUJJQYZRl7cMmjxmt-3" value="" style="edgeStyle=orthogonalEdgeStyle;rounded=0;orthogonalLoop=1;jettySize=auto;html=1;" edge="1" parent="WIyWlLk6GJQsqaUBKTNV-1" source="ma_xUJJQYZRl7cMmjxmt-1" target="ma_xUJJQYZRl7cMmjxmt-2">
          <mxGeometry relative="1" as="geometry" />
        </mxCell>
        <mxCell id="ma_xUJJQYZRl7cMmjxmt-1" value="inicio" style="ellipse;whiteSpace=wrap;html=1;" vertex="1" parent="WIyWlLk6GJQsqaUBKTNV-1">
          <mxGeometry x="350" y="40" width="100" height="30" as="geometry" />
        </mxCell>
        <mxCell id="ma_xUJJQYZRl7cMmjxmt-5" value="" style="edgeStyle=orthogonalEdgeStyle;rounded=0;orthogonalLoop=1;jettySize=auto;html=1;" edge="1" parent="WIyWlLk6GJQsqaUBKTNV-1" source="ma_xUJJQYZRl7cMmjxmt-2" target="ma_xUJJQYZRl7cMmjxmt-4">
          <mxGeometry relative="1" as="geometry" />
        </mxCell>
        <mxCell id="ma_xUJJQYZRl7cMmjxmt-2" value="Ejecucon del proceso a las 19:00" style="whiteSpace=wrap;html=1;" vertex="1" parent="WIyWlLk6GJQsqaUBKTNV-1">
          <mxGeometry x="340" y="135" width="120" height="60" as="geometry" />
        </mxCell>
        <mxCell id="ma_xUJJQYZRl7cMmjxmt-6" value="NO" style="edgeStyle=orthogonalEdgeStyle;rounded=0;orthogonalLoop=1;jettySize=auto;html=1;exitX=0;exitY=0.5;exitDx=0;exitDy=0;entryX=0;entryY=0.5;entryDx=0;entryDy=0;" edge="1" parent="WIyWlLk6GJQsqaUBKTNV-1" source="ma_xUJJQYZRl7cMmjxmt-4" target="ma_xUJJQYZRl7cMmjxmt-2">
          <mxGeometry relative="1" as="geometry" />
        </mxCell>
        <mxCell id="ma_xUJJQYZRl7cMmjxmt-8" value="" style="edgeStyle=orthogonalEdgeStyle;rounded=0;orthogonalLoop=1;jettySize=auto;html=1;" edge="1" parent="WIyWlLk6GJQsqaUBKTNV-1" source="ma_xUJJQYZRl7cMmjxmt-4" target="ma_xUJJQYZRl7cMmjxmt-7">
          <mxGeometry relative="1" as="geometry" />
        </mxCell>
        <mxCell id="ma_xUJJQYZRl7cMmjxmt-4" value="se ejecuto la Tarear" style="rhombus;whiteSpace=wrap;html=1;" vertex="1" parent="WIyWlLk6GJQsqaUBKTNV-1">
          <mxGeometry x="360" y="265" width="80" height="80" as="geometry" />
        </mxCell>
        <mxCell id="ma_xUJJQYZRl7cMmjxmt-10" value="" style="edgeStyle=orthogonalEdgeStyle;rounded=0;orthogonalLoop=1;jettySize=auto;html=1;" edge="1" parent="WIyWlLk6GJQsqaUBKTNV-1" source="ma_xUJJQYZRl7cMmjxmt-7">
          <mxGeometry relative="1" as="geometry">
            <mxPoint x="400" y="470" as="targetPoint" />
          </mxGeometry>
        </mxCell>
        <mxCell id="ma_xUJJQYZRl7cMmjxmt-7" value="Extraccion BRM&amp;nbsp;" style="whiteSpace=wrap;html=1;" vertex="1" parent="WIyWlLk6GJQsqaUBKTNV-1">
          <mxGeometry x="340" y="380" width="120" height="45" as="geometry" />
        </mxCell>
        <mxCell id="ma_xUJJQYZRl7cMmjxmt-15" value="" style="edgeStyle=orthogonalEdgeStyle;rounded=0;orthogonalLoop=1;jettySize=auto;html=1;" edge="1" parent="WIyWlLk6GJQsqaUBKTNV-1" source="ma_xUJJQYZRl7cMmjxmt-13" target="ma_xUJJQYZRl7cMmjxmt-14">
          <mxGeometry relative="1" as="geometry" />
        </mxCell>
        <mxCell id="ma_xUJJQYZRl7cMmjxmt-13" value="Inserta Cuentas en BASE SQL por medio de Hilos" style="whiteSpace=wrap;html=1;" vertex="1" parent="WIyWlLk6GJQsqaUBKTNV-1">
          <mxGeometry x="340" y="470" width="130" height="50" as="geometry" />
        </mxCell>
        <mxCell id="ma_xUJJQYZRl7cMmjxmt-17" value="NO" style="edgeStyle=orthogonalEdgeStyle;rounded=0;orthogonalLoop=1;jettySize=auto;html=1;" edge="1" parent="WIyWlLk6GJQsqaUBKTNV-1" source="ma_xUJJQYZRl7cMmjxmt-14" target="ma_xUJJQYZRl7cMmjxmt-16">
          <mxGeometry relative="1" as="geometry" />
        </mxCell>
        <mxCell id="ma_xUJJQYZRl7cMmjxmt-22" value="SI" style="edgeStyle=orthogonalEdgeStyle;rounded=0;orthogonalLoop=1;jettySize=auto;html=1;" edge="1" parent="WIyWlLk6GJQsqaUBKTNV-1" source="ma_xUJJQYZRl7cMmjxmt-14" target="ma_xUJJQYZRl7cMmjxmt-21">
          <mxGeometry relative="1" as="geometry">
            <Array as="points">
              <mxPoint x="405" y="680" />
              <mxPoint x="405" y="680" />
            </Array>
          </mxGeometry>
        </mxCell>
        <mxCell id="ma_xUJJQYZRl7cMmjxmt-14" value="Se inserto Correctamente en SQL?" style="rhombus;whiteSpace=wrap;html=1;" vertex="1" parent="WIyWlLk6GJQsqaUBKTNV-1">
          <mxGeometry x="365" y="580" width="80" height="80" as="geometry" />
        </mxCell>
        <mxCell id="ma_xUJJQYZRl7cMmjxmt-18" style="edgeStyle=orthogonalEdgeStyle;rounded=0;orthogonalLoop=1;jettySize=auto;html=1;exitX=0.5;exitY=0;exitDx=0;exitDy=0;entryX=1;entryY=0.5;entryDx=0;entryDy=0;" edge="1" parent="WIyWlLk6GJQsqaUBKTNV-1" source="ma_xUJJQYZRl7cMmjxmt-16" target="ma_xUJJQYZRl7cMmjxmt-13">
          <mxGeometry relative="1" as="geometry" />
        </mxCell>
        <mxCell id="ma_xUJJQYZRl7cMmjxmt-20" value="" style="edgeStyle=orthogonalEdgeStyle;rounded=0;orthogonalLoop=1;jettySize=auto;html=1;entryX=0.5;entryY=0;entryDx=0;entryDy=0;" edge="1" parent="WIyWlLk6GJQsqaUBKTNV-1" source="ma_xUJJQYZRl7cMmjxmt-16" target="ma_xUJJQYZRl7cMmjxmt-42">
          <mxGeometry relative="1" as="geometry">
            <mxPoint x="690" y="620" as="targetPoint" />
          </mxGeometry>
        </mxCell>
        <mxCell id="ma_xUJJQYZRl7cMmjxmt-16" value="Almacena Registros que no se Hayan insertado en Base SQL" style="rounded=1;whiteSpace=wrap;html=1;" vertex="1" parent="WIyWlLk6GJQsqaUBKTNV-1">
          <mxGeometry x="505" y="590" width="120" height="60" as="geometry" />
        </mxCell>
        <mxCell id="ma_xUJJQYZRl7cMmjxmt-24" value="" style="edgeStyle=orthogonalEdgeStyle;rounded=0;orthogonalLoop=1;jettySize=auto;html=1;" edge="1" parent="WIyWlLk6GJQsqaUBKTNV-1" source="ma_xUJJQYZRl7cMmjxmt-21">
          <mxGeometry relative="1" as="geometry">
            <mxPoint x="405" y="880" as="targetPoint" />
          </mxGeometry>
        </mxCell>
        <mxCell id="ma_xUJJQYZRl7cMmjxmt-21" value="Extraccion de Informacion SIEBEL" style="whiteSpace=wrap;html=1;" vertex="1" parent="WIyWlLk6GJQsqaUBKTNV-1">
          <mxGeometry x="345" y="750" width="120" height="60" as="geometry" />
        </mxCell>
        <mxCell id="ma_xUJJQYZRl7cMmjxmt-25" value="" style="edgeStyle=orthogonalEdgeStyle;rounded=0;orthogonalLoop=1;jettySize=auto;html=1;" edge="1" parent="WIyWlLk6GJQsqaUBKTNV-1" source="ma_xUJJQYZRl7cMmjxmt-26" target="ma_xUJJQYZRl7cMmjxmt-28">
          <mxGeometry relative="1" as="geometry" />
        </mxCell>
        <mxCell id="ma_xUJJQYZRl7cMmjxmt-26" value="Inserta Cuentas en BASE SQL por medio de Hilos" style="whiteSpace=wrap;html=1;" vertex="1" parent="WIyWlLk6GJQsqaUBKTNV-1">
          <mxGeometry x="340" y="880" width="130" height="50" as="geometry" />
        </mxCell>
        <mxCell id="ma_xUJJQYZRl7cMmjxmt-27" value="NO" style="edgeStyle=orthogonalEdgeStyle;rounded=0;orthogonalLoop=1;jettySize=auto;html=1;" edge="1" parent="WIyWlLk6GJQsqaUBKTNV-1" source="ma_xUJJQYZRl7cMmjxmt-28" target="ma_xUJJQYZRl7cMmjxmt-31">
          <mxGeometry relative="1" as="geometry" />
        </mxCell>
        <mxCell id="ma_xUJJQYZRl7cMmjxmt-43" value="SI" style="edgeStyle=orthogonalEdgeStyle;rounded=0;orthogonalLoop=1;jettySize=auto;html=1;exitX=0.5;exitY=1;exitDx=0;exitDy=0;entryX=0.5;entryY=0;entryDx=0;entryDy=0;" edge="1" parent="WIyWlLk6GJQsqaUBKTNV-1" source="ma_xUJJQYZRl7cMmjxmt-28" target="ma_xUJJQYZRl7cMmjxmt-34">
          <mxGeometry relative="1" as="geometry" />
        </mxCell>
        <mxCell id="ma_xUJJQYZRl7cMmjxmt-28" value="Se inserto Correctamente en SQL?" style="rhombus;whiteSpace=wrap;html=1;" vertex="1" parent="WIyWlLk6GJQsqaUBKTNV-1">
          <mxGeometry x="365" y="990" width="80" height="80" as="geometry" />
        </mxCell>
        <mxCell id="ma_xUJJQYZRl7cMmjxmt-29" style="edgeStyle=orthogonalEdgeStyle;rounded=0;orthogonalLoop=1;jettySize=auto;html=1;exitX=0.5;exitY=0;exitDx=0;exitDy=0;entryX=1;entryY=0.5;entryDx=0;entryDy=0;" edge="1" parent="WIyWlLk6GJQsqaUBKTNV-1" source="ma_xUJJQYZRl7cMmjxmt-31" target="ma_xUJJQYZRl7cMmjxmt-26">
          <mxGeometry relative="1" as="geometry" />
        </mxCell>
        <mxCell id="ma_xUJJQYZRl7cMmjxmt-30" value="" style="edgeStyle=orthogonalEdgeStyle;rounded=0;orthogonalLoop=1;jettySize=auto;html=1;" edge="1" parent="WIyWlLk6GJQsqaUBKTNV-1" source="ma_xUJJQYZRl7cMmjxmt-31">
          <mxGeometry relative="1" as="geometry">
            <mxPoint x="690" y="1030" as="targetPoint" />
          </mxGeometry>
        </mxCell>
        <mxCell id="ma_xUJJQYZRl7cMmjxmt-31" value="Almacena Registros que no se Hayan insertado en Base SQL" style="rounded=1;whiteSpace=wrap;html=1;" vertex="1" parent="WIyWlLk6GJQsqaUBKTNV-1">
          <mxGeometry x="505" y="1000" width="120" height="60" as="geometry" />
        </mxCell>
        <mxCell id="ma_xUJJQYZRl7cMmjxmt-33" value="" style="edgeStyle=orthogonalEdgeStyle;rounded=0;orthogonalLoop=1;jettySize=auto;html=1;" edge="1" parent="WIyWlLk6GJQsqaUBKTNV-1" source="ma_xUJJQYZRl7cMmjxmt-34">
          <mxGeometry relative="1" as="geometry">
            <mxPoint x="405" y="1240" as="targetPoint" />
          </mxGeometry>
        </mxCell>
        <mxCell id="ma_xUJJQYZRl7cMmjxmt-34" value="Extraccion de Informacion SIEBEL&lt;br&gt;Datos Deudor de Instalacion" style="whiteSpace=wrap;html=1;" vertex="1" parent="WIyWlLk6GJQsqaUBKTNV-1">
          <mxGeometry x="345" y="1110" width="120" height="60" as="geometry" />
        </mxCell>
        <mxCell id="ma_xUJJQYZRl7cMmjxmt-35" value="" style="edgeStyle=orthogonalEdgeStyle;rounded=0;orthogonalLoop=1;jettySize=auto;html=1;" edge="1" parent="WIyWlLk6GJQsqaUBKTNV-1" source="ma_xUJJQYZRl7cMmjxmt-36" target="ma_xUJJQYZRl7cMmjxmt-38">
          <mxGeometry relative="1" as="geometry" />
        </mxCell>
        <mxCell id="ma_xUJJQYZRl7cMmjxmt-36" value="Inserta Cuentas en BASE SQL por medio de Hilos" style="whiteSpace=wrap;html=1;" vertex="1" parent="WIyWlLk6GJQsqaUBKTNV-1">
          <mxGeometry x="340" y="1240" width="130" height="50" as="geometry" />
        </mxCell>
        <mxCell id="ma_xUJJQYZRl7cMmjxmt-37" value="NO" style="edgeStyle=orthogonalEdgeStyle;rounded=0;orthogonalLoop=1;jettySize=auto;html=1;" edge="1" parent="WIyWlLk6GJQsqaUBKTNV-1" source="ma_xUJJQYZRl7cMmjxmt-38" target="ma_xUJJQYZRl7cMmjxmt-41">
          <mxGeometry relative="1" as="geometry" />
        </mxCell>
        <mxCell id="ma_xUJJQYZRl7cMmjxmt-47" value="SI" style="edgeStyle=orthogonalEdgeStyle;rounded=0;orthogonalLoop=1;jettySize=auto;html=1;" edge="1" parent="WIyWlLk6GJQsqaUBKTNV-1" source="ma_xUJJQYZRl7cMmjxmt-38" target="ma_xUJJQYZRl7cMmjxmt-46">
          <mxGeometry relative="1" as="geometry" />
        </mxCell>
        <mxCell id="ma_xUJJQYZRl7cMmjxmt-38" value="Se inserto Correctamente en SQL?" style="rhombus;whiteSpace=wrap;html=1;" vertex="1" parent="WIyWlLk6GJQsqaUBKTNV-1">
          <mxGeometry x="365" y="1350" width="80" height="80" as="geometry" />
        </mxCell>
        <mxCell id="ma_xUJJQYZRl7cMmjxmt-39" style="edgeStyle=orthogonalEdgeStyle;rounded=0;orthogonalLoop=1;jettySize=auto;html=1;exitX=0.5;exitY=0;exitDx=0;exitDy=0;entryX=1;entryY=0.5;entryDx=0;entryDy=0;" edge="1" parent="WIyWlLk6GJQsqaUBKTNV-1" source="ma_xUJJQYZRl7cMmjxmt-41" target="ma_xUJJQYZRl7cMmjxmt-36">
          <mxGeometry relative="1" as="geometry" />
        </mxCell>
        <mxCell id="ma_xUJJQYZRl7cMmjxmt-40" value="" style="edgeStyle=orthogonalEdgeStyle;rounded=0;orthogonalLoop=1;jettySize=auto;html=1;" edge="1" parent="WIyWlLk6GJQsqaUBKTNV-1" source="ma_xUJJQYZRl7cMmjxmt-41" target="ma_xUJJQYZRl7cMmjxmt-42">
          <mxGeometry relative="1" as="geometry" />
        </mxCell>
        <mxCell id="ma_xUJJQYZRl7cMmjxmt-41" value="Almacena Registros que no se Hayan insertado en Base SQL" style="rounded=1;whiteSpace=wrap;html=1;" vertex="1" parent="WIyWlLk6GJQsqaUBKTNV-1">
          <mxGeometry x="505" y="1360" width="120" height="60" as="geometry" />
        </mxCell>
        <mxCell id="ma_xUJJQYZRl7cMmjxmt-42" value="Se genera Registros De excepciones al insertar en base SQL" style="shape=document;whiteSpace=wrap;html=1;boundedLbl=1;rounded=1;" vertex="1" parent="WIyWlLk6GJQsqaUBKTNV-1">
          <mxGeometry x="690" y="1000" width="120" height="80" as="geometry" />
        </mxCell>
        <mxCell id="ma_xUJJQYZRl7cMmjxmt-52" value="" style="edgeStyle=orthogonalEdgeStyle;rounded=0;orthogonalLoop=1;jettySize=auto;html=1;" edge="1" parent="WIyWlLk6GJQsqaUBKTNV-1" source="ma_xUJJQYZRl7cMmjxmt-46" target="ma_xUJJQYZRl7cMmjxmt-51">
          <mxGeometry relative="1" as="geometry" />
        </mxCell>
        <mxCell id="ma_xUJJQYZRl7cMmjxmt-46" value="Update del Identificador en SQL" style="whiteSpace=wrap;html=1;" vertex="1" parent="WIyWlLk6GJQsqaUBKTNV-1">
          <mxGeometry x="345" y="1460" width="120" height="60" as="geometry" />
        </mxCell>
        <mxCell id="ma_xUJJQYZRl7cMmjxmt-53" style="edgeStyle=orthogonalEdgeStyle;rounded=0;orthogonalLoop=1;jettySize=auto;html=1;exitX=1;exitY=0.5;exitDx=0;exitDy=0;" edge="1" parent="WIyWlLk6GJQsqaUBKTNV-1" source="ma_xUJJQYZRl7cMmjxmt-51">
          <mxGeometry relative="1" as="geometry">
            <mxPoint x="750" y="1390" as="targetPoint" />
          </mxGeometry>
        </mxCell>
        <mxCell id="ma_xUJJQYZRl7cMmjxmt-55" value="" style="edgeStyle=orthogonalEdgeStyle;rounded=0;orthogonalLoop=1;jettySize=auto;html=1;" edge="1" parent="WIyWlLk6GJQsqaUBKTNV-1" source="ma_xUJJQYZRl7cMmjxmt-51">
          <mxGeometry relative="1" as="geometry">
            <mxPoint x="405" y="1700" as="targetPoint" />
          </mxGeometry>
        </mxCell>
        <mxCell id="ma_xUJJQYZRl7cMmjxmt-51" value="Crear Reportes por cada deudor" style="whiteSpace=wrap;html=1;" vertex="1" parent="WIyWlLk6GJQsqaUBKTNV-1">
          <mxGeometry x="345" y="1560" width="120" height="60" as="geometry" />
        </mxCell>
        <mxCell id="ma_xUJJQYZRl7cMmjxmt-63" value="" style="edgeStyle=orthogonalEdgeStyle;rounded=0;orthogonalLoop=1;jettySize=auto;html=1;" edge="1" parent="WIyWlLk6GJQsqaUBKTNV-1" source="ma_xUJJQYZRl7cMmjxmt-60" target="ma_xUJJQYZRl7cMmjxmt-62">
          <mxGeometry relative="1" as="geometry" />
        </mxCell>
        <mxCell id="ma_xUJJQYZRl7cMmjxmt-60" value="Se generan Reportes Por cada Master" style="whiteSpace=wrap;html=1;" vertex="1" parent="WIyWlLk6GJQsqaUBKTNV-1">
          <mxGeometry x="342.5" y="1700" width="120" height="60" as="geometry" />
        </mxCell>
        <mxCell id="ma_xUJJQYZRl7cMmjxmt-67" style="edgeStyle=orthogonalEdgeStyle;rounded=0;orthogonalLoop=1;jettySize=auto;html=1;exitX=0.5;exitY=1;exitDx=0;exitDy=0;entryX=0.5;entryY=0;entryDx=0;entryDy=0;" edge="1" parent="WIyWlLk6GJQsqaUBKTNV-1" source="ma_xUJJQYZRl7cMmjxmt-62">
          <mxGeometry relative="1" as="geometry">
            <mxPoint x="402.5" y="1940" as="targetPoint" />
          </mxGeometry>
        </mxCell>
        <mxCell id="ma_xUJJQYZRl7cMmjxmt-62" value="Se realiza envio a cada Master depenediendo de los correros registrados en SQL" style="whiteSpace=wrap;html=1;" vertex="1" parent="WIyWlLk6GJQsqaUBKTNV-1">
          <mxGeometry x="340" y="1840" width="125" height="70" as="geometry" />
        </mxCell>
        <mxCell id="ma_xUJJQYZRl7cMmjxmt-64" value="NO" style="edgeStyle=orthogonalEdgeStyle;rounded=0;orthogonalLoop=1;jettySize=auto;html=1;" edge="1" parent="WIyWlLk6GJQsqaUBKTNV-1" target="ma_xUJJQYZRl7cMmjxmt-66">
          <mxGeometry relative="1" as="geometry">
            <mxPoint x="442.5" y="1980" as="sourcePoint" />
          </mxGeometry>
        </mxCell>
        <mxCell id="ma_xUJJQYZRl7cMmjxmt-69" value="SI" style="edgeStyle=orthogonalEdgeStyle;rounded=0;orthogonalLoop=1;jettySize=auto;html=1;" edge="1" parent="WIyWlLk6GJQsqaUBKTNV-1" source="ma_xUJJQYZRl7cMmjxmt-65" target="ma_xUJJQYZRl7cMmjxmt-68">
          <mxGeometry relative="1" as="geometry" />
        </mxCell>
        <mxCell id="ma_xUJJQYZRl7cMmjxmt-65" value="Se Realizo Envio?" style="rhombus;whiteSpace=wrap;html=1;" vertex="1" parent="WIyWlLk6GJQsqaUBKTNV-1">
          <mxGeometry x="362.5" y="1940" width="80" height="80" as="geometry" />
        </mxCell>
        <mxCell id="ma_xUJJQYZRl7cMmjxmt-75" value="" style="edgeStyle=orthogonalEdgeStyle;rounded=0;orthogonalLoop=1;jettySize=auto;html=1;" edge="1" parent="WIyWlLk6GJQsqaUBKTNV-1" source="ma_xUJJQYZRl7cMmjxmt-66" target="ma_xUJJQYZRl7cMmjxmt-74">
          <mxGeometry relative="1" as="geometry" />
        </mxCell>
        <mxCell id="ma_xUJJQYZRl7cMmjxmt-66" value="Se debe de Revisar el flujo del proceso y Datos en la Base" style="rounded=1;whiteSpace=wrap;html=1;" vertex="1" parent="WIyWlLk6GJQsqaUBKTNV-1">
          <mxGeometry x="502.5" y="1950" width="120" height="60" as="geometry" />
        </mxCell>
        <mxCell id="ma_xUJJQYZRl7cMmjxmt-68" value="FIN" style="ellipse;whiteSpace=wrap;html=1;" vertex="1" parent="WIyWlLk6GJQsqaUBKTNV-1">
          <mxGeometry x="370" y="2070" width="65" height="50" as="geometry" />
        </mxCell>
        <mxCell id="ma_xUJJQYZRl7cMmjxmt-76" value="SI" style="edgeStyle=orthogonalEdgeStyle;rounded=0;orthogonalLoop=1;jettySize=auto;html=1;exitX=0.5;exitY=0;exitDx=0;exitDy=0;entryX=1;entryY=0.5;entryDx=0;entryDy=0;" edge="1" parent="WIyWlLk6GJQsqaUBKTNV-1" source="ma_xUJJQYZRl7cMmjxmt-74" target="ma_xUJJQYZRl7cMmjxmt-62">
          <mxGeometry x="-0.8811" relative="1" as="geometry">
            <mxPoint as="offset" />
          </mxGeometry>
        </mxCell>
        <mxCell id="ma_xUJJQYZRl7cMmjxmt-79" value="Ejecucion Manual&lt;br&gt;" style="edgeLabel;html=1;align=center;verticalAlign=middle;resizable=0;points=[];" vertex="1" connectable="0" parent="ma_xUJJQYZRl7cMmjxmt-76">
          <mxGeometry x="-0.237" y="-2" relative="1" as="geometry">
            <mxPoint x="-53" y="2" as="offset" />
          </mxGeometry>
        </mxCell>
        <mxCell id="ma_xUJJQYZRl7cMmjxmt-77" style="edgeStyle=orthogonalEdgeStyle;rounded=0;orthogonalLoop=1;jettySize=auto;html=1;exitX=0.5;exitY=1;exitDx=0;exitDy=0;entryX=0.5;entryY=1;entryDx=0;entryDy=0;" edge="1" parent="WIyWlLk6GJQsqaUBKTNV-1" source="ma_xUJJQYZRl7cMmjxmt-74" target="ma_xUJJQYZRl7cMmjxmt-66">
          <mxGeometry relative="1" as="geometry" />
        </mxCell>
        <mxCell id="ma_xUJJQYZRl7cMmjxmt-78" value="NO" style="edgeLabel;html=1;align=center;verticalAlign=middle;resizable=0;points=[];" vertex="1" connectable="0" parent="ma_xUJJQYZRl7cMmjxmt-77">
          <mxGeometry x="-0.4443" y="-1" relative="1" as="geometry">
            <mxPoint as="offset" />
          </mxGeometry>
        </mxCell>
        <mxCell id="ma_xUJJQYZRl7cMmjxmt-74" value="Los datos estan Completos y correctamente llenados?" style="rhombus;whiteSpace=wrap;html=1;rounded=1;" vertex="1" parent="WIyWlLk6GJQsqaUBKTNV-1">
          <mxGeometry x="702.5" y="1920" width="107.5" height="120" as="geometry" />
        </mxCell>
      </root>
    </mxGraphModel>
  </diagram>
</mxfile>
